<?xml version="1.0" encoding="UTF-8" standalone="no"?>
<!-- Created with Inkscape (http://www.inkscape.org/) -->

<svg
   xmlns:dc="http://purl.org/dc/elements/1.1/"
   xmlns:cc="http://creativecommons.org/ns#"
   xmlns:rdf="http://www.w3.org/1999/02/22-rdf-syntax-ns#"
   xmlns:svg="http://www.w3.org/2000/svg"
   xmlns="http://www.w3.org/2000/svg"
   xmlns:sodipodi="http://sodipodi.sourceforge.net/DTD/sodipodi-0.dtd"
   xmlns:inkscape="http://www.inkscape.org/namespaces/inkscape"
   width="3543.3069"
   height="2834.6455"
   id="svg2"
   sodipodi:version="0.32"
   inkscape:version="0.48.2 r9819"
   version="1.0"
   sodipodi:docname="Fibonacci_clock.svg"
   inkscape:output_extension="org.inkscape.output.svg.inkscape">
  <defs
     id="defs4">
    <inkscape:perspective
       sodipodi:type="inkscape:persp3d"
       inkscape:vp_x="0 : 526.18109 : 1"
       inkscape:vp_y="0 : 1000 : 0"
       inkscape:vp_z="744.09448 : 526.18109 : 1"
       inkscape:persp3d-origin="372.04724 : 350.78739 : 1"
       id="perspective10" />
  </defs>
  <sodipodi:namedview
     id="base"
     pagecolor="#ffffff"
     bordercolor="#666666"
     borderopacity="1.0"
     gridtolerance="20"
     guidetolerance="20"
     objecttolerance="20"
     inkscape:pageopacity="0.0"
     inkscape:pageshadow="2"
     inkscape:zoom="0.24748737"
     inkscape:cx="896.71274"
     inkscape:cy="981.52967"
     inkscape:document-units="mm"
     inkscape:current-layer="layer1"
     showgrid="true"
     units="mm"
     inkscape:object-paths="true"
     inkscape:object-nodes="true"
     inkscape:window-width="1366"
     inkscape:window-height="706"
     inkscape:window-x="-8"
     inkscape:window-y="-8"
     showguides="true"
     inkscape:guide-bbox="true"
     inkscape:window-maximized="1">
    <inkscape:grid
       type="xygrid"
       id="grid2385"
       visible="true"
       enabled="true"
       units="mm"
       spacingx="1mm"
       spacingy="1mm"
       dotted="false" />
  </sodipodi:namedview>
  <metadata
     id="metadata7">
    <rdf:RDF>
      <cc:Work
         rdf:about="">
        <dc:format>image/svg+xml</dc:format>
        <dc:type
           rdf:resource="http://purl.org/dc/dcmitype/StillImage" />
        <dc:title />
      </cc:Work>
    </rdf:RDF>
  </metadata>
  <g
     inkscape:label="Layer 1"
     inkscape:groupmode="layer"
     id="layer1">
    <path
       style="fill:none;stroke:#0000ff;stroke-width:3.54330709;stroke-linecap:butt;stroke-linejoin:miter;stroke-miterlimit:4;stroke-opacity:1;stroke-dasharray:none"
       d="m 2372.1301,2797.212 c -39.0532,0 -70.723,-31.6719 -70.723,-70.6904 0,-5.3989 0.6306,-10.6453 1.7798,-15.6983 -8.4745,-735.14 -608.2592,-1329.1292 -1346.04587,-1329.1626 l 0,0.1248 c -430.48255,0.1009 -779.82009,349.1721 -779.88791,779.2772 l 1.9359,0 c 0.13572,233.9108 190.12379,423.7248 424.24379,423.8603 l 0,-0.1242 c 97.43157,-0.1667 179.48919,-66.0732 204.20655,-155.6431 -18.90373,9.3608 -40.18295,14.6374 -62.69828,14.6374 -78.1063,0 -141.50825,-63.3441 -141.50827,-141.3805 0,-78.0364 63.40198,-141.3804 141.50827,-141.3801 1.22042,0 2.40897,0.036 3.62201,0.064 0.14498,0 0.29227,0 0.43714,0 115.28261,2.1691 208.14078,96.2809 208.1408,211.9769 2e-5,195.0911 -158.44248,353.4821 -353.70822,353.4825 -312.42518,0 -566.001831,-253.3447 -566.00185,-565.4906 -10e-7,-507.2366 412.01923,-918.9098 919.71007,-918.9099 819.64807,-10e-5 1484.95277,664.2574 1485.71197,1482.9957 0.01,0.4604 0.031,0.911 0.031,1.3731 0,39.0185 -31.701,70.6904 -70.7541,70.6904 z"
       id="path2399"
       inkscape:connector-curvature="0" />
    <g
       id="g3229"
       transform="matrix(0,-0.99871341,-0.99917578,0,2391.2839,3284.7876)"
       style="fill:none;stroke:#0000ff;stroke-width:3.54705076;stroke-miterlimit:4;stroke-opacity:1;stroke-dasharray:none">
      <path
         transform="matrix(0.9725524,0,0,0.9725524,10.473724,45.723776)"
         d="m 1062.9922,1647.6376 c 0,9.7845 -7.932,17.7165 -17.7166,17.7165 -9.7845,0 -17.7165,-7.932 -17.7165,-17.7165 0,-9.7846 7.932,-17.7166 17.7165,-17.7166 9.7846,0 17.7166,7.932 17.7166,17.7166 z"
         sodipodi:ry="17.716536"
         sodipodi:rx="17.716536"
         sodipodi:cy="1647.6376"
         sodipodi:cx="1045.2756"
         id="path2451"
         style="fill:none;stroke:#0000ff;stroke-width:3.64715645;stroke-linecap:butt;stroke-linejoin:miter;stroke-miterlimit:4;stroke-opacity:1;stroke-dasharray:none"
         sodipodi:type="arc" />
      <path
         sodipodi:type="arc"
         style="fill:none;stroke:#0000ff;stroke-width:3.64715645;stroke-linecap:butt;stroke-linejoin:miter;stroke-miterlimit:4;stroke-opacity:1;stroke-dasharray:none"
         id="path3227"
         sodipodi:cx="1045.2756"
         sodipodi:cy="1647.6376"
         sodipodi:rx="17.716536"
         sodipodi:ry="17.716536"
         d="m 1062.9922,1647.6376 c 0,9.7845 -7.932,17.7165 -17.7166,17.7165 -9.7845,0 -17.7165,-7.932 -17.7165,-17.7165 0,-9.7846 7.932,-17.7166 17.7165,-17.7166 9.7846,0 17.7166,7.932 17.7166,17.7166 z"
         transform="matrix(0.9725524,0,0,0.9725524,64.123334,45.223758)" />
    </g>
    <g
       transform="matrix(0,1,-1,0,2392.2321,611.22031)"
       id="g3233"
       style="fill:none;stroke:#0000ff;stroke-opacity:1;stroke-width:3.54330709;stroke-miterlimit:4;stroke-dasharray:none">
      <path
         sodipodi:type="arc"
         style="fill:none;stroke:#0000ff;stroke-width:3.64715643;stroke-linecap:butt;stroke-linejoin:miter;stroke-miterlimit:4;stroke-opacity:1;stroke-dasharray:none"
         id="path3235"
         sodipodi:cx="1045.2756"
         sodipodi:cy="1647.6376"
         sodipodi:rx="17.716536"
         sodipodi:ry="17.716536"
         d="m 1062.9922,1647.6376 c 0,9.7845 -7.932,17.7165 -17.7166,17.7165 -9.7845,0 -17.7165,-7.932 -17.7165,-17.7165 0,-9.7846 7.932,-17.7166 17.7165,-17.7166 9.7846,0 17.7166,7.932 17.7166,17.7166 z"
         transform="matrix(-0.97130115,0,0,0.97175079,2804.6569,46.634338)" />
      <path
         transform="matrix(-0.97130115,0,0,0.97175079,2751.0764,46.134733)"
         d="m 1062.9922,1647.6376 c 0,9.7845 -7.932,17.7165 -17.7166,17.7165 -9.7845,0 -17.7165,-7.932 -17.7165,-17.7165 0,-9.7846 7.932,-17.7166 17.7165,-17.7166 9.7846,0 17.7166,7.932 17.7166,17.7166 z"
         sodipodi:ry="17.716536"
         sodipodi:rx="17.716536"
         sodipodi:cy="1647.6376"
         sodipodi:cx="1045.2756"
         id="path3237"
         style="fill:none;stroke:#0000ff;stroke-width:3.64715643;stroke-linecap:butt;stroke-linejoin:miter;stroke-miterlimit:4;stroke-opacity:1;stroke-dasharray:none"
         sodipodi:type="arc" />
    </g>
    <g
       transform="matrix(-0.99917578,0,0,0.99871341,3426.3475,1081.9169)"
       id="g3239"
       style="fill:none;stroke:#0000ff;stroke-width:3.54705076;stroke-miterlimit:4;stroke-opacity:1;stroke-dasharray:none">
      <path
         sodipodi:type="arc"
         style="fill:none;stroke:#0000ff;stroke-width:3.64715645;stroke-linecap:butt;stroke-linejoin:miter;stroke-miterlimit:4;stroke-opacity:1;stroke-dasharray:none"
         id="path3241"
         sodipodi:cx="1045.2756"
         sodipodi:cy="1647.6376"
         sodipodi:rx="17.716536"
         sodipodi:ry="17.716536"
         d="m 1062.9922,1647.6376 c 0,9.7845 -7.932,17.7165 -17.7166,17.7165 -9.7845,0 -17.7165,-7.932 -17.7165,-17.7165 0,-9.7846 7.932,-17.7166 17.7165,-17.7166 9.7846,0 17.7166,7.932 17.7166,17.7166 z"
         transform="matrix(0.9725524,0,0,0.9725524,36.888962,45.532132)" />
    </g>
    <g
       id="g3245"
       transform="matrix(-0.99917578,0,0,0.99871341,1726.962,657.26715)"
       style="fill:none;stroke:#0000ff;stroke-width:3.54705076;stroke-miterlimit:4;stroke-opacity:1;stroke-dasharray:none">
      <path
         transform="matrix(0.9725524,0,0,0.9725524,10.473724,45.723776)"
         d="m 1062.9922,1647.6376 c 0,9.7845 -7.932,17.7165 -17.7166,17.7165 -9.7845,0 -17.7165,-7.932 -17.7165,-17.7165 0,-9.7846 7.932,-17.7166 17.7165,-17.7166 9.7846,0 17.7166,7.932 17.7166,17.7166 z"
         sodipodi:ry="17.716536"
         sodipodi:rx="17.716536"
         sodipodi:cy="1647.6376"
         sodipodi:cx="1045.2756"
         id="path3247"
         style="fill:none;stroke:#0000ff;stroke-width:3.64715645;stroke-linecap:butt;stroke-linejoin:miter;stroke-miterlimit:4;stroke-opacity:1;stroke-dasharray:none"
         sodipodi:type="arc" />
      <path
         sodipodi:type="arc"
         style="fill:none;stroke:#0000ff;stroke-width:3.64715645;stroke-linecap:butt;stroke-linejoin:miter;stroke-miterlimit:4;stroke-opacity:1;stroke-dasharray:none"
         id="path3249"
         sodipodi:cx="1045.2756"
         sodipodi:cy="1647.6376"
         sodipodi:rx="17.716536"
         sodipodi:ry="17.716536"
         d="m 1062.9922,1647.6376 c 0,9.7845 -7.932,17.7165 -17.7166,17.7165 -9.7845,0 -17.7165,-7.932 -17.7165,-17.7165 0,-9.7846 7.932,-17.7166 17.7165,-17.7166 9.7846,0 17.7166,7.932 17.7166,17.7166 z"
         transform="matrix(0.9725524,0,0,0.9725524,64.123334,45.223758)" />
    </g>
    <g
       id="g3251"
       transform="matrix(-0.99917578,0,0,0.99871341,1939.3851,728.04204)"
       style="fill:none;stroke:#0000ff;stroke-width:3.54705076;stroke-miterlimit:4;stroke-opacity:1;stroke-dasharray:none">
      <path
         transform="matrix(0.9725524,0,0,0.9725524,10.473724,45.723776)"
         d="m 1062.9922,1647.6376 c 0,9.7845 -7.932,17.7165 -17.7166,17.7165 -9.7845,0 -17.7165,-7.932 -17.7165,-17.7165 0,-9.7846 7.932,-17.7166 17.7165,-17.7166 9.7846,0 17.7166,7.932 17.7166,17.7166 z"
         sodipodi:ry="17.716536"
         sodipodi:rx="17.716536"
         sodipodi:cy="1647.6376"
         sodipodi:cx="1045.2756"
         id="path3253"
         style="fill:none;stroke:#0000ff;stroke-width:3.64715645;stroke-linecap:butt;stroke-linejoin:miter;stroke-miterlimit:4;stroke-opacity:1;stroke-dasharray:none"
         sodipodi:type="arc" />
      <path
         sodipodi:type="arc"
         style="fill:none;stroke:#0000ff;stroke-width:3.64715645;stroke-linecap:butt;stroke-linejoin:miter;stroke-miterlimit:4;stroke-opacity:1;stroke-dasharray:none"
         id="path3255"
         sodipodi:cx="1045.2756"
         sodipodi:cy="1647.6376"
         sodipodi:rx="17.716536"
         sodipodi:ry="17.716536"
         d="m 1062.9922,1647.6376 c 0,9.7845 -7.932,17.7165 -17.7166,17.7165 -9.7845,0 -17.7165,-7.932 -17.7165,-17.7165 0,-9.7846 7.932,-17.7166 17.7165,-17.7166 9.7846,0 17.7166,7.932 17.7166,17.7166 z"
         transform="matrix(0.9725524,0,0,0.9725524,64.123334,45.223758)" />
    </g>
    <g
       id="g3257"
       transform="matrix(0,0.99871341,0.99917578,0,-689.35174,259.65715)"
       style="fill:none;stroke:#0000ff;stroke-width:3.54705076;stroke-miterlimit:4;stroke-opacity:1;stroke-dasharray:none">
      <path
         transform="matrix(0.9725524,0,0,0.9725524,10.473724,45.723776)"
         d="m 1062.9922,1647.6376 c 0,9.7845 -7.932,17.7165 -17.7166,17.7165 -9.7845,0 -17.7165,-7.932 -17.7165,-17.7165 0,-9.7846 7.932,-17.7166 17.7165,-17.7166 9.7846,0 17.7166,7.932 17.7166,17.7166 z"
         sodipodi:ry="17.716536"
         sodipodi:rx="17.716536"
         sodipodi:cy="1647.6376"
         sodipodi:cx="1045.2756"
         id="path3259"
         style="fill:none;stroke:#0000ff;stroke-width:3.64715645;stroke-linecap:butt;stroke-linejoin:miter;stroke-miterlimit:4;stroke-opacity:1;stroke-dasharray:none"
         sodipodi:type="arc" />
      <path
         sodipodi:type="arc"
         style="fill:none;stroke:#0000ff;stroke-width:3.64715645;stroke-linecap:butt;stroke-linejoin:miter;stroke-miterlimit:4;stroke-opacity:1;stroke-dasharray:none"
         id="path3261"
         sodipodi:cx="1045.2756"
         sodipodi:cy="1647.6376"
         sodipodi:rx="17.716536"
         sodipodi:ry="17.716536"
         d="m 1062.9922,1647.6376 c 0,9.7845 -7.932,17.7165 -17.7166,17.7165 -9.7845,0 -17.7165,-7.932 -17.7165,-17.7165 0,-9.7846 7.932,-17.7166 17.7165,-17.7166 9.7846,0 17.7166,7.932 17.7166,17.7166 z"
         transform="matrix(0.9725524,0,0,0.9725524,64.123334,45.223758)" />
    </g>
    <g
       transform="matrix(0,0.99871341,0.99917578,0,-1043.3903,1604.3814)"
       id="g3263"
       style="fill:none;stroke:#0000ff;stroke-width:3.54705076;stroke-miterlimit:4;stroke-opacity:1;stroke-dasharray:none">
      <path
         sodipodi:type="arc"
         style="fill:none;stroke:#0000ff;stroke-width:3.64715645;stroke-linecap:butt;stroke-linejoin:miter;stroke-miterlimit:4;stroke-opacity:1;stroke-dasharray:none"
         id="path3265"
         sodipodi:cx="1045.2756"
         sodipodi:cy="1647.6376"
         sodipodi:rx="17.716536"
         sodipodi:ry="17.716536"
         d="m 1062.9922,1647.6376 c 0,9.7845 -7.932,17.7165 -17.7166,17.7165 -9.7845,0 -17.7165,-7.932 -17.7165,-17.7165 0,-9.7846 7.932,-17.7166 17.7165,-17.7166 9.7846,0 17.7166,7.932 17.7166,17.7166 z"
         transform="matrix(0.9725524,0,0,0.9725524,10.473724,45.723776)" />
      <path
         transform="matrix(0.9725524,0,0,0.9725524,64.123334,45.223758)"
         d="m 1062.9922,1647.6376 c 0,9.7845 -7.932,17.7165 -17.7166,17.7165 -9.7845,0 -17.7165,-7.932 -17.7165,-17.7165 0,-9.7846 7.932,-17.7166 17.7165,-17.7166 9.7846,0 17.7166,7.932 17.7166,17.7166 z"
         sodipodi:ry="17.716536"
         sodipodi:rx="17.716536"
         sodipodi:cy="1647.6376"
         sodipodi:cx="1045.2756"
         id="path3267"
         style="fill:none;stroke:#0000ff;stroke-width:3.64715645;stroke-linecap:butt;stroke-linejoin:miter;stroke-miterlimit:4;stroke-opacity:1;stroke-dasharray:none"
         sodipodi:type="arc" />
    </g>
    <g
       id="g3269"
       transform="matrix(-0.99917578,0,0,0.99871341,1160.5001,515.71715)"
       style="fill:none;stroke:#0000ff;stroke-width:3.54705076;stroke-miterlimit:4;stroke-opacity:1;stroke-dasharray:none">
      <path
         transform="matrix(0.9725524,0,0,0.9725524,10.473724,45.723776)"
         d="m 1062.9922,1647.6376 c 0,9.7845 -7.932,17.7165 -17.7166,17.7165 -9.7845,0 -17.7165,-7.932 -17.7165,-17.7165 0,-9.7846 7.932,-17.7166 17.7165,-17.7166 9.7846,0 17.7166,7.932 17.7166,17.7166 z"
         sodipodi:ry="17.716536"
         sodipodi:rx="17.716536"
         sodipodi:cy="1647.6376"
         sodipodi:cx="1045.2756"
         id="path3271"
         style="fill:none;stroke:#0000ff;stroke-width:3.64715645;stroke-linecap:butt;stroke-linejoin:miter;stroke-miterlimit:4;stroke-opacity:1;stroke-dasharray:none"
         sodipodi:type="arc" />
      <path
         sodipodi:type="arc"
         style="fill:none;stroke:#0000ff;stroke-width:3.64715645;stroke-linecap:butt;stroke-linejoin:miter;stroke-miterlimit:4;stroke-opacity:1;stroke-dasharray:none"
         id="path3273"
         sodipodi:cx="1045.2756"
         sodipodi:cy="1647.6376"
         sodipodi:rx="17.716536"
         sodipodi:ry="17.716536"
         d="m 1062.9922,1647.6376 c 0,9.7845 -7.932,17.7165 -17.7166,17.7165 -9.7845,0 -17.7165,-7.932 -17.7165,-17.7165 0,-9.7846 7.932,-17.7166 17.7165,-17.7166 9.7846,0 17.7166,7.932 17.7166,17.7166 z"
         transform="matrix(0.9725524,0,0,0.9725524,64.123334,45.223758)" />
    </g>
  </g>
</svg>
